<svg width="32" height="32" viewBox="0 0 32 32" fill="none" xmlns="http://www.w3.org/2000/svg">
<rect width="32" height="32" rx="16" fill="#FFFDFB"/>
<path d="M26 16.3038C26 10.7472 21.5229 6.24268 16 6.24268C10.4771 6.24268 6 10.7472 6 16.3038C6 21.3255 9.65684 25.4879 14.4375 26.2427V19.2121H11.8984V16.3038H14.4375V14.0872C14.4375 11.5656 15.9305 10.1728 18.2146 10.1728C19.3088 10.1728 20.4531 10.3693 20.4531 10.3693V12.8453H19.1922C17.95 12.8453 17.5625 13.6209 17.5625 14.4166V16.3038H20.3359L19.8926 19.2121H17.5625V26.2427C22.3432 25.4879 26 21.3257 26 16.3038Z" fill="#34303D"/>
</svg>
