<svg width="32" height="32" viewBox="0 0 32 32" fill="none" xmlns="http://www.w3.org/2000/svg">
<rect width="32" height="32" rx="16" fill="#FFFDFB"/>
<path fill-rule="evenodd" clip-rule="evenodd" d="M8.5 7.24268C7.67157 7.24268 7 7.91425 7 8.74268V23.7427C7 24.5711 7.67157 25.2427 8.5 25.2427H23.5C24.3284 25.2427 25 24.5711 25 23.7427V8.74268C25 7.91425 24.3284 7.24268 23.5 7.24268H8.5ZM12.5208 11.2454C12.5264 12.2016 11.8106 12.7909 10.9612 12.7866C10.1611 12.7824 9.46357 12.1454 9.46779 11.2468C9.47201 10.4016 10.14 9.72243 11.0076 9.74212C11.8879 9.76181 12.5264 10.4073 12.5208 11.2454ZM16.2797 14.0044H13.7597H13.7583V22.5643H16.4217V22.3646C16.4217 21.9847 16.4214 21.6047 16.4211 21.2246C16.4203 20.2108 16.4194 19.1959 16.4246 18.1824C16.426 17.9363 16.4372 17.6804 16.5005 17.4455C16.7381 16.568 17.5271 16.0013 18.4074 16.1406C18.9727 16.2291 19.3467 16.5568 19.5042 17.0898C19.6013 17.423 19.6449 17.7816 19.6491 18.129C19.6605 19.1766 19.6589 20.2242 19.6573 21.2719C19.6567 21.6417 19.6561 22.0117 19.6561 22.3815V22.5629H22.328V22.3576C22.328 21.9056 22.3278 21.4537 22.3275 21.0018C22.327 19.8723 22.3264 18.7428 22.3294 17.6129C22.3308 17.1024 22.276 16.599 22.1508 16.1054C21.9638 15.3713 21.5771 14.7638 20.9485 14.3251C20.5027 14.0129 20.0133 13.8118 19.4663 13.7893C19.404 13.7867 19.3412 13.7833 19.2781 13.7799C18.9984 13.7648 18.7141 13.7494 18.4467 13.8033C17.6817 13.9566 17.0096 14.3068 16.5019 14.9241C16.4429 14.9949 16.3852 15.0668 16.2991 15.1741L16.2797 15.1984V14.0044ZM9.68164 22.5671H12.3324V14.01H9.68164V22.5671Z" fill="#34303D"/>
</svg>
