<!-- Generator: Adobe Illustrator 18.1.0, SVG Export Plug-In  -->
<svg version="1.1"
	 xmlns="http://www.w3.org/2000/svg" xmlns:xlink="http://www.w3.org/1999/xlink" xmlns:a="http://ns.adobe.com/AdobeSVGViewerExtensions/3.0/"
	 x="0px" y="0px" width="77.286px" height="88.5px" viewBox="0 0 77.286 88.5" enable-background="new 0 0 77.286 88.5"
	 xml:space="preserve">
<defs>
</defs>
<g>
	<rect x="35.643" y="38.214" fill="#5E9666" width="6" height="50.286"/>
</g>
<g>
	<path fill="#5E9666" d="M52.786,71v-5c10.752,0,19.5-8.748,19.5-19.5c0-9.953-7.453-18.281-17.336-19.372l-2.962-0.327l0.837-2.86
		c0.4-1.368,0.604-2.767,0.604-4.154C53.429,11.633,46.796,5,38.643,5s-14.786,6.633-14.786,14.786c0,1.388,0.203,2.786,0.604,4.154
		l0.837,2.86l-2.962,0.327C12.453,28.219,5,36.547,5,46.5C5,57.252,13.748,66,24.5,66v5C10.991,71,0,60.01,0,46.5
		c0-11.574,8.023-21.399,19.064-23.888c-0.138-0.939-0.207-1.884-0.207-2.826C18.857,8.876,27.733,0,38.643,0
		s19.786,8.876,19.786,19.786c0,0.942-0.069,1.887-0.207,2.826C69.263,25.101,77.286,34.926,77.286,46.5
		C77.286,60.01,66.295,71,52.786,71z"/>
</g>
<g>
	
		<rect x="44.542" y="40.857" transform="matrix(-0.564 -0.8258 0.8258 -0.564 32.1491 115.4062)" fill="#5E9666" width="4" height="16.717"/>
</g>
<g>
	
		<rect x="24.09" y="54.812" transform="matrix(-0.7071 -0.7071 0.7071 -0.7071 15.5017 120.0441)" fill="#5E9666" width="17.046" height="4"/>
</g>
</svg>