<svg width="32" height="32" viewBox="0 0 32 32" fill="none" xmlns="http://www.w3.org/2000/svg">
<rect width="32" height="32" rx="16" fill="#FFFDFB"/>
<path fill-rule="evenodd" clip-rule="evenodd" d="M22.3774 9.61581C20.6853 7.92985 18.4351 7.00098 16.0376 7C11.0977 7 7.07709 11.001 7.07516 15.9188C7.07447 17.4909 7.48717 19.0254 8.27149 20.378L7 25L11.7511 23.7597C13.0601 24.4703 14.534 24.8448 16.034 24.8453H16.0376C16.0373 24.8453 16.0379 24.8453 16.0376 24.8453C20.977 24.8453 24.9979 20.8439 25 15.926C25.0009 13.5427 24.0695 11.3017 22.3774 9.61581ZM16.0376 23.339H16.0346C14.698 23.3384 13.3869 22.981 12.2432 22.3056L11.9712 22.1449L9.15186 22.8809L9.90442 20.1453L9.72729 19.8647C8.98164 18.6844 8.58782 17.3201 8.5884 15.9194C8.59 11.8319 11.9318 8.50644 16.0406 8.50644C18.0303 8.50706 19.9006 9.27923 21.307 10.6805C22.7134 12.0818 23.4875 13.9445 23.4867 15.9254C23.4851 20.0132 20.1434 23.339 16.0376 23.339Z" fill="#34303D"/>
<path fill-rule="evenodd" clip-rule="evenodd" d="M20.1234 17.7865C19.8995 17.675 18.7985 17.1359 18.5932 17.0615C18.3879 16.9871 18.2386 16.9499 18.0894 17.173C17.9401 17.3961 17.5109 17.8981 17.3803 18.0469C17.2497 18.1956 17.119 18.2143 16.8951 18.1026C16.6712 17.9911 15.9496 17.7558 15.0943 16.9965C14.4285 16.4055 13.9791 15.6757 13.8484 15.4525C13.7178 15.2295 13.8345 15.1089 13.9467 14.9977C14.0474 14.8978 14.1706 14.7374 14.2826 14.6073C14.3946 14.4772 14.4319 14.3841 14.5065 14.2355C14.5812 14.0867 14.5439 13.9566 14.4879 13.845C14.4319 13.7335 13.984 12.6365 13.7974 12.1902C13.6156 11.7557 13.431 11.8145 13.2935 11.8076C13.1631 11.8011 13.0136 11.7998 12.8644 11.7998C12.7151 11.7998 12.4724 11.8556 12.2672 12.0787C12.062 12.3018 11.4834 12.841 11.4834 13.9379C11.4834 15.0349 12.2858 16.0947 12.3978 16.2434C12.5098 16.3922 13.9769 18.6432 16.2233 19.6086C16.7576 19.8383 17.1747 19.9754 17.4999 20.078C18.0364 20.2477 18.5246 20.2237 18.9104 20.1664C19.3407 20.1024 20.2354 19.6272 20.422 19.1067C20.6086 18.5861 20.6086 18.1398 20.5526 18.0469C20.4966 17.9539 20.3473 17.8981 20.1234 17.7865Z" fill="#34303D"/>
</svg>
